<svg width="24" height="24" viewBox="0 0 24 24" fill="none" xmlns="http://www.w3.org/2000/svg">
<path d="M12 21C10.05 21 8.39583 20.3208 7.0375 18.9625C5.67917 17.6042 5 15.95 5 14C5 12.4333 5.4625 11.0292 6.3875 9.78751C7.3125 8.54584 8.525 7.70834 10.025 7.27501C9.69167 7.19167 9.36667 7.07084 9.05 6.91251C8.73333 6.75417 8.45 6.55001 8.2 6.30001C7.65 5.75001 7.29583 5.09584 7.1375 4.33751C6.97917 3.57917 6.94167 2.80834 7.025 2.02501C7.80833 1.94167 8.57917 1.97917 9.3375 2.13751C10.0958 2.29584 10.75 2.65001 11.3 3.20001C11.6833 3.58334 11.9625 4.01667 12.1375 4.50001C12.3125 4.98334 12.425 5.49167 12.475 6.02501C12.6917 5.50834 12.9542 5.02084 13.2625 4.56251C13.5708 4.10417 13.9167 3.68334 14.3 3.30001C14.4833 3.11667 14.7167 3.02501 15 3.02501C15.2833 3.02501 15.5167 3.11667 15.7 3.30001C15.8833 3.48334 15.975 3.71667 15.975 4.00001C15.975 4.28334 15.8833 4.51667 15.7 4.70001C15.3333 5.06667 15.0083 5.47084 14.725 5.91251C14.4417 6.35417 14.2333 6.82501 14.1 7.32501C15.5667 7.79167 16.75 8.63751 17.65 9.86251C18.55 11.0875 19 12.4667 19 14C19 15.95 18.3208 17.6042 16.9625 18.9625C15.6042 20.3208 13.95 21 12 21ZM12 19C13.3833 19 14.5625 18.5125 15.5375 17.5375C16.5125 16.5625 17 15.3833 17 14C17 12.6167 16.5125 11.4375 15.5375 10.4625C14.5625 9.48751 13.3833 9.00001 12 9.00001C10.6167 9.00001 9.4375 9.48751 8.4625 10.4625C7.4875 11.4375 7 12.6167 7 14C7 15.3833 7.4875 16.5625 8.4625 17.5375C9.4375 18.5125 10.6167 19 12 19Z" fill="#FFF1EA"/>
</svg>
